<?xml version="1.0" standalone="no"?>
<!DOCTYPE svg PUBLIC "-//W3C//DTD SVG 20010904//EN"
 "http://www.w3.org/TR/2001/REC-SVG-20010904/DTD/svg10.dtd">
<svg version="1.0" xmlns="http://www.w3.org/2000/svg"
 width="1305.000000pt" height="1305.000000pt" viewBox="0 0 1305.000000 1305.000000"
 preserveAspectRatio="xMidYMid meet">
<metadata>
Created by potrace 1.11, written by Peter Selinger 2001-2013
</metadata>
<g transform="translate(0.000000,1305.000000) scale(0.100000,-0.100000)"
fill="#000000" stroke="none">
<path d="M6631 13005 c-97 -22 -158 -56 -361 -204 -102 -75 -189 -139 -195
-144 -5 -4 -117 -89 -248 -187 -131 -99 -243 -184 -250 -190 -7 -6 -48 -38
-92 -72 -90 -70 -441 -348 -541 -430 -22 -18 -60 -49 -84 -68 -36 -29 -245
-202 -315 -262 -11 -9 -85 -72 -165 -139 -230 -194 -538 -466 -686 -604 -6 -5
-53 -48 -105 -95 -369 -336 -933 -896 -1219 -1210 -47 -52 -108 -119 -136
-149 -28 -31 -84 -94 -124 -141 -39 -47 -77 -89 -83 -95 -31 -26 -356 -425
-502 -615 -212 -277 -478 -661 -585 -845 -10 -16 -54 -92 -99 -168 -45 -76
-126 -224 -180 -330 -84 -164 -122 -244 -218 -465 -45 -103 -131 -346 -173
-492 -57 -194 -111 -441 -125 -580 -4 -30 -8 -62 -10 -70 -16 -62 -24 -397
-12 -530 42 -494 313 -937 742 -1212 162 -105 440 -227 620 -274 6 -2 35 -10
65 -19 60 -17 334 -73 390 -80 19 -2 52 -7 73 -11 51 -8 81 -12 162 -19 39 -4
86 -8 105 -11 200 -23 1038 -25 1198 -3 29 4 33 -3 28 -44 -3 -23 -8 -96 -11
-162 -4 -66 -8 -151 -10 -190 -26 -482 -26 -1414 0 -1645 2 -19 6 -71 10 -115
3 -44 8 -91 10 -105 2 -14 6 -47 10 -75 29 -247 99 -484 180 -610 75 -119 188
-204 340 -256 26 -9 82 -14 165 -13 110 1 133 4 192 27 244 95 397 313 400
572 1 92 -8 145 -38 223 -28 76 -30 85 -49 222 -30 224 -39 430 -39 885 0 338
6 605 19 835 9 155 15 246 19 265 2 11 7 76 10 145 11 183 2 169 111 185 83
11 115 16 300 44 344 53 459 71 540 86 44 8 94 16 110 18 17 3 59 10 95 16
104 19 113 21 160 27 25 3 52 7 60 9 8 2 29 7 45 10 17 2 39 7 50 9 11 2 56 9
100 16 44 7 88 14 98 16 16 3 18 -2 13 -49 -3 -29 -8 -62 -10 -73 -24 -122
-25 -616 -2 -764 2 -14 7 -47 10 -75 7 -54 10 -72 31 -186 28 -152 116 -467
154 -554 5 -11 26 -60 46 -110 146 -355 379 -700 655 -973 258 -255 632 -500
960 -627 3 -1 12 -4 20 -8 83 -33 357 -116 435 -132 74 -15 254 -46 295 -51
25 -3 56 -7 70 -10 136 -25 626 -24 837 1 16 2 55 6 88 10 343 37 773 155
1080 295 219 99 365 179 529 288 90 60 213 148 226 162 3 3 30 25 60 50 363
296 659 688 851 1125 64 148 153 449 174 590 3 23 7 50 9 60 3 18 8 65 21 200
9 100 4 376 -9 465 -3 19 -8 59 -12 89 -3 30 -7 61 -9 70 -2 9 -11 52 -20 96
-36 175 -108 403 -177 560 -83 186 -130 273 -283 518 -38 61 -217 296 -270
353 -5 6 -44 49 -85 94 -121 134 -358 367 -539 530 -52 47 -105 94 -117 105
-138 125 -277 242 -489 411 -110 87 -263 206 -339 264 -77 58 -141 110 -143
115 -1 6 31 34 73 64 42 30 81 59 87 65 7 6 50 40 97 75 47 36 87 67 90 70 3
3 28 24 55 46 59 46 273 224 296 245 9 8 56 51 105 95 351 315 672 688 872
1011 112 181 217 435 247 597 3 12 9 42 14 67 31 139 44 306 38 494 -3 100 -8
190 -10 201 -3 11 -8 43 -11 70 -13 96 -18 121 -42 225 -90 384 -273 756 -530
1075 -118 147 -323 348 -449 441 -22 16 -47 35 -55 43 -20 19 -221 150 -290
189 -92 52 -239 122 -350 167 -101 42 -339 120 -390 129 -14 2 -45 9 -70 16
-25 7 -54 13 -65 15 -11 1 -76 12 -145 23 -69 12 -159 24 -200 28 -41 3 -88 8
-105 10 -50 6 -425 6 -505 0 -306 -25 -521 -64 -765 -138 -121 -37 -294 -103
-354 -135 -24 -12 -47 -23 -51 -23 -11 0 -212 -110 -280 -153 -469 -300 -813
-730 -992 -1237 -17 -47 -31 -89 -32 -95 -2 -5 -9 -30 -16 -55 -16 -55 -14
-43 -39 -165 -11 -55 -23 -122 -27 -150 -3 -27 -8 -61 -10 -75 -10 -49 -12
-436 -3 -505 4 -38 10 -88 13 -110 4 -33 16 -98 40 -220 12 -58 72 -253 108
-345 146 -381 423 -811 763 -1189 164 -182 465 -465 655 -616 41 -32 80 -64
86 -70 6 -5 56 -46 112 -89 56 -44 102 -83 102 -86 0 -4 -78 -65 -172 -135
-433 -321 -666 -519 -948 -804 -184 -185 -303 -323 -420 -487 -38 -54 -78 -99
-87 -100 -36 -4 -189 -25 -213 -29 -14 -2 -45 -7 -70 -10 -25 -3 -52 -7 -60
-10 -8 -2 -35 -6 -60 -9 -47 -6 -55 -8 -185 -31 -44 -7 -111 -18 -150 -24 -38
-6 -81 -13 -95 -16 -63 -11 -388 -67 -414 -71 -16 -2 -82 -12 -145 -23 -64
-11 -136 -23 -161 -26 -25 -3 -52 -8 -60 -10 -8 -2 -35 -7 -60 -10 -25 -3 -97
-15 -161 -26 -64 -10 -127 -19 -141 -19 l-25 0 14 78 c11 64 57 299 68 352 2
8 13 53 24 100 12 47 23 93 26 102 63 260 166 522 240 614 199 244 191 595
-18 820 -76 81 -151 129 -261 166 -69 23 -94 26 -185 24 -126 -2 -207 -26
-302 -88 -82 -53 -119 -87 -189 -178 -156 -203 -269 -446 -383 -820 -46 -151
-126 -463 -143 -558 -3 -15 -16 -81 -29 -147 -26 -127 -64 -347 -71 -405 -2
-19 -6 -46 -9 -60 -8 -37 -12 -60 -19 -111 l-7 -46 -57 -2 c-31 -1 -70 -4 -87
-6 -156 -20 -820 -27 -1060 -12 -71 5 -132 10 -135 12 -3 1 -32 6 -65 9 -359
41 -663 142 -801 269 -113 103 -138 227 -104 512 62 529 332 1156 793 1845 74
111 325 461 336 470 4 3 29 34 56 70 45 59 123 156 224 280 75 92 286 338 356
414 11 12 44 49 74 82 217 240 698 729 942 959 47 44 121 114 165 155 65 62
288 265 434 396 46 41 139 122 176 154 16 14 92 80 169 146 130 112 391 331
495 415 25 20 86 70 135 110 293 241 851 673 1225 949 14 10 72 53 130 96 180
132 244 214 296 379 19 63 26 225 12 295 -48 231 -220 413 -448 472 -73 19
-190 20 -269 3z m3022 -2129 c115 -8 148 -13 292 -43 479 -100 869 -361 1124
-753 74 -113 174 -341 195 -441 3 -13 7 -33 10 -44 32 -137 38 -188 37 -315 0
-127 -28 -270 -73 -378 -34 -81 -149 -260 -243 -377 -253 -315 -609 -645
-1070 -990 -66 -50 -122 -92 -125 -95 -3 -3 -48 -36 -100 -74 -52 -38 -117
-86 -145 -106 -27 -20 -56 -40 -63 -44 -20 -12 -214 125 -502 353 -254 201
-606 537 -715 682 -11 15 -49 64 -85 110 -81 105 -181 256 -250 377 -108 191
-168 363 -200 582 -13 89 -10 299 6 380 8 41 16 84 18 95 17 90 81 252 139
350 254 432 740 692 1367 731 52 4 96 7 97 8 4 4 198 -2 286 -8z m-48 -5123
c635 -456 1057 -808 1509 -1258 236 -235 367 -404 500 -644 25 -46 46 -89 46
-95 0 -7 5 -17 12 -24 12 -12 20 -32 69 -172 48 -140 63 -206 84 -365 7 -55 7
-251 -1 -316 -82 -730 -680 -1356 -1531 -1603 -285 -82 -536 -115 -853 -111
-205 3 -262 7 -355 25 -27 5 -66 11 -85 14 -19 3 -69 15 -110 26 -41 12 -92
25 -112 31 -55 14 -182 65 -272 111 -434 218 -753 597 -920 1091 -22 67 -55
189 -62 235 -3 20 -8 40 -10 43 -2 4 -6 31 -10 60 -3 30 -8 56 -10 59 -1 4 -6
51 -11 105 -14 181 -7 425 16 555 6 30 12 69 14 85 8 54 45 199 70 275 77 232
141 359 296 589 105 156 376 436 616 637 39 32 76 64 83 72 94 89 869 662 897
662 6 0 64 -39 130 -87z"/>
</g>
</svg>
